<svg width="30" height="30" viewBox="0 0 30 30" xmlns="http://www.w3.org/2000/svg">
<path d="M12.1289 15.0001C12.1289 16.5858 13.4143 17.8712 15 17.8712C16.5857 17.8712 17.8711 16.5858 17.8711 15.0001C17.8711 13.4144 16.5857 12.129 15 12.129C13.4143 12.129 12.1289 13.4144 12.1289 15.0001Z" />
<path d="M8.28558 9.92003C8.4236 9.54604 8.64378 9.20752 8.92989 8.92966C9.20775 8.64355 9.54604 8.42337 9.92026 8.28535C10.2238 8.16748 10.6797 8.02718 11.5195 7.98895C12.4279 7.94753 12.7003 7.9386 15.0001 7.9386C17.3001 7.9386 17.5725 7.9473 18.4807 7.98872C19.3204 8.02718 19.7766 8.16748 20.0799 8.28535C20.4541 8.42337 20.7926 8.64355 21.0702 8.92966C21.3563 9.20752 21.5765 9.54581 21.7148 9.92003C21.8326 10.2235 21.9729 10.6797 22.0112 11.5195C22.0526 12.4277 22.0615 12.7 22.0615 15.0001C22.0615 17.2999 22.0526 17.5722 22.0112 18.4807C21.9729 19.3204 21.8326 19.7764 21.7148 20.0799C21.5765 20.4541 21.3566 20.7924 21.0705 21.0702C20.7926 21.3563 20.4543 21.5765 20.0801 21.7145C19.7766 21.8326 19.3204 21.9729 18.4807 22.0112C17.5725 22.0526 17.3003 22.0613 15.0003 22.0613C12.7 22.0613 12.4277 22.0526 11.5197 22.0112C10.6799 21.9729 10.2238 21.8326 9.92026 21.7145C9.16907 21.4248 8.57535 20.8311 8.28558 20.0799C8.16771 19.7764 8.0274 19.3204 7.98895 18.4807C7.94753 17.5722 7.93883 17.2999 7.93883 15.0001C7.93883 12.7 7.94753 12.4277 7.98895 11.5195C8.02718 10.6797 8.16748 10.2235 8.28558 9.92003ZM15.0001 19.4227C17.4429 19.4227 19.4232 17.4427 19.4232 14.9998C19.4232 12.557 17.4429 10.5769 15.0001 10.5769C12.5574 10.5769 10.5771 12.557 10.5771 14.9998C10.5771 17.4427 12.5574 19.4227 15.0001 19.4227ZM10.4023 11.4357C10.9731 11.4357 11.4359 10.9729 11.4359 10.4021C11.4359 9.83122 10.9731 9.36842 10.4023 9.36842C9.83145 9.36842 9.36865 9.83122 9.36865 10.4021C9.36888 10.9729 9.83145 11.4357 10.4023 11.4357Z" />
<path d="M15 0C23.283 0 30 6.717 30 15C30 23.283 23.283 30 15 30C6.717 30 0 23.283 0 15C0 6.717 6.717 0 15 0ZM6.43867 18.5511C6.48033 19.468 6.62613 20.094 6.83899 20.6419C7.28645 21.7989 8.20107 22.7135 9.35806 23.161C9.90578 23.3739 10.532 23.5194 11.4487 23.5613C12.3672 23.6032 12.6606 23.6133 14.9998 23.6133C17.3392 23.6133 17.6324 23.6032 18.5511 23.5613C19.4678 23.5194 20.094 23.3739 20.6417 23.161C21.2167 22.9447 21.7371 22.6057 22.1674 22.1674C22.6055 21.7374 22.9445 21.2167 23.1608 20.6419C23.3736 20.0942 23.5194 19.468 23.5611 18.5513C23.6034 17.6326 23.6133 17.3392 23.6133 15C23.6133 12.6608 23.6034 12.3674 23.5613 11.4489C23.5197 10.532 23.3741 9.90601 23.1612 9.35806C22.9449 8.78334 22.6057 8.26263 22.1674 7.83257C21.7374 7.39426 21.2167 7.05528 20.6419 6.83899C20.094 6.62613 19.468 6.48056 18.5511 6.43867C17.6326 6.39679 17.3392 6.38672 15 6.38672C12.6608 6.38672 12.3674 6.39679 11.4489 6.4389C10.532 6.48056 9.90601 6.62613 9.35806 6.83876C8.78334 7.05505 8.26263 7.39426 7.83234 7.83257C7.39426 8.26286 7.05505 8.78334 6.83899 9.35806C6.6259 9.90601 6.48033 10.532 6.43845 11.4489C6.39656 12.3674 6.38672 12.6608 6.38672 15C6.38672 17.3392 6.39656 17.6326 6.43867 18.5511Z" />
</svg>
